<?xml version="1.0" encoding="utf-8"?>
<!-- Generator: Adobe Illustrator 19.0.0, SVG Export Plug-In . SVG Version: 6.00 Build 0)  -->
<svg version="1.1" id="Layer_1" xmlns="http://www.w3.org/2000/svg" xmlns:xlink="http://www.w3.org/1999/xlink" x="0px" y="0px"
	 viewBox="0 0 293.27 308.769" enable-background="new 0 0 293.27 308.769" xml:space="preserve">
<g>
	<path fill="#FE1010" d="M26.386,73.338c-6.307-9.334-4.453-14.139,6.588-17.085c4.888-1.304,9.852-1.533,15.141-0.909
		c18.358-17.023,39.461-29.584,63.816-36.301c4.57-1.26,8.215-3.225,11.636-6.774c15.524-16.102,39.934-16.381,55.88-0.685
		c3.716,3.658,7.664,5.826,12.595,7.206c26.343,7.37,48.35,21.717,67.388,43.401c2.02-2.536,3.678-5.026,5.735-7.127
		c7.212-7.367,19.306-6.693,26.196,1.204c2.696,3.09,2.365,6.052,0.075,8.995c-2.552,3.279-5.111,6.585-7.983,9.575
		c-2.879,2.997-6.148,5.618-9.307,8.459c20.523,39.857,22.738,80.11,7.675,121.327c-7.081,19.375-23.398,44.823-32.094,50.303
		c-3.587-1.608-3.673-1.747-4.502-7.717c22.069-25.844,32.249-56.206,30.307-90.462c-1.124-19.828-6.577-38.515-16.049-55.753
		c-36.744,33.35-52.957,73.863-44.487,123.339c3.183,18.592,8.113,36.64,14.615,54.31c2.671,7.259,1.21,10.601-5.741,14.034
		c-58.361,28.831-134.251,18.212-181.53-26.222c-27.076-25.447-40.637-57.59-42.202-94.604c-1.37-32.397,7.387-62.116,25.172-89.199
		c1.094-1.667,4.391-5.001,3.979-6.036C28.831,76.076,26.386,73.338,26.386,73.338z M35.715,85.251
		c-43.142,67.211-11.146,152.273,47.221,184.004c-2.335-32.49,4.591-63.453,11.801-94.39c1.612-6.918,2.092-13.852-2.071-20.251
		C76.344,129.532,55.011,108.611,35.715,85.251z M196.564,41.597c1.726,10.801,1.711,20.835-0.973,30.8
		c-8.545,31.733-41.03,45.02-65.522,26.557c-13.1-9.875-19.476-23.634-21.507-39.663c-1.138-8.981,0.18-17.779,2.295-26.967
		c-21.583,5.26-39.909,14.918-55.789,29.707c15.372,17.102,31.6,32.262,51.249,43.36c22.132,12.5,45.4,17.824,70.475,10.538
		c16.811-4.884,31.822-13.381,45.826-23.698c6.74-4.965,13.199-10.312,19.997-15.653C229.374,61.455,214.5,50.078,196.564,41.597z"
		/>
</g>
</svg>
